                                                                        S      1
,,,9HLATERALES,22HAutodesk Inventor 2024,7Hunknown,32,38,7,99,15,,1.,2, G      1
2HMM,1,0.08,15H20240707.141134,0.01,10000.,5Hcecit,,11,0,15H20240618.000G      2
000;                                                                    G      3
     186       1                                                00000000D      1
     186            -227       1       0                               0D      2
     514       2                                                00010000D      3
     514                       2       1                               0D      4
     510       4                                                00010000D      5
     510            -227       1       1                               0D      6
     510       5                                                00010000D      7
     510            -227       1       1                               0D      8
     510       6                                                00010000D      9
     510            -227       1       1                               0D     10
     510       7                                                00010000D     11
     510            -227       1       1                               0D     12
     510       8                                                00010000D     13
     510            -227       1       1                               0D     14
     510       9                                                00010000D     15
     510            -227       1       1                               0D     16
     510      10                                                00010000D     17
     510            -227       1       1                               0D     18
     510      11                                                00010000D     19
     510            -227       1       1                               0D     20
     510      12                                                00010000D     21
     510            -227       1       1                               0D     22
     510      13                                                00010000D     23
     510            -227       1       1                               0D     24
     510      14                                                00010000D     25
     510            -227       1       1                               0D     26
     510      15                                                00010000D     27
     510            -227       1       1                               0D     28
     510      16                                                00010000D     29
     510            -227       1       1                               0D     30
     510      17                                                00010000D     31
     510            -227       1       1                               0D     32
     510      18                                                00010000D     33
     510            -227       1       1                               0D     34
     510      19                                                00010000D     35
     510            -227       1       1                               0D     36
     508      20                                                00010000D     37
     508                       2       1                               0D     38
     508      22                                                00010000D     39
     508                       1       1                               0D     40
     508      23                                                00010000D     41
     508                       2       1                               0D     42
     508      25                                                00010000D     43
     508                       1       1                               0D     44
     508      26                                                00010000D     45
     508                       2       1                               0D     46
     508      28                                                00010000D     47
     508                       2       1                               0D     48
     508      30                                                00010000D     49
     508                       2       1                               0D     50
     508      32                                                00010000D     51
     508                       2       1                               0D     52
     508      34                                                00010000D     53
     508                       2       1                               0D     54
     508      36                                                00010000D     55
     508                       2       1                               0D     56
     508      38                                                00010000D     57
     508                       1       1                               0D     58
     508      39                                                00010000D     59
     508                       1       1                               0D     60
     508      40                                                00010000D     61
     508                       1       1                               0D     62
     508      41                                                00010000D     63
     508                       1       1                               0D     64
     508      42                                                00010000D     65
     508                       1       1                               0D     66
     508      43                                                00010000D     67
     508                       1       1                               0D     68
     508      44                                                00010000D     69
     508                       1       1                               0D     70
     508      45                                                00010000D     71
     508                       1       1                               0D     72
     508      46                                                00010000D     73
     508                       1       1                               0D     74
     508      47                                                00010000D     75
     508                       1       1                               0D     76
     508      48                                                00010000D     77
     508                       1       1                               0D     78
     508      49                                                00010000D     79
     508                       1       1                               0D     80
     508      50                                                00010000D     81
     508                       1       1                               0D     82
     508      51                                                00010000D     83
     508                       1       1                               0D     84
     508      52                                                00010000D     85
     508                       1       1                               0D     86
     508      53                                                00010000D     87
     508                       1       1                               0D     88
     508      54                                                00010000D     89
     508                       1       1                               0D     90
     508      55                                                00010000D     91
     508                       1       1                               0D     92
     508      56                                                00010000D     93
     508                       1       1                               0D     94
     508      57                                                00010000D     95
     508                       1       1                               0D     96
     126      58                                                00010000D     97
     126       0               8       0                               0D     98
     126      66                                                00010000D     99
     126       0               7       0                               0D    100
     126      73                                                00010000D    101
     126       0               3       0                               0D    102
     126      76                                                00010000D    103
     126       0               8       0                               0D    104
     126      84                                                00010000D    105
     126       0               7       0                               0D    106
     126      91                                                00010000D    107
     126       0               8       0                               0D    108
     126      99                                                00010000D    109
     126       0               7       0                               0D    110
     126     106                                                00010000D    111
     126       0               3       0                               0D    112
     126     109                                                00010000D    113
     126       0               7       0                               0D    114
     126     116                                                00010000D    115
     126       0               7       0                               0D    116
     126     123                                                00010000D    117
     126       0               5       0                               0D    118
     126     128                                                00010000D    119
     126       0               6       0                               0D    120
     126     134                                                00010000D    121
     126       0               3       0                               0D    122
     126     137                                                00010000D    123
     126       0               8       0                               0D    124
     126     145                                                00010000D    125
     126       0               5       0                               0D    126
     126     150                                                00010000D    127
     126       0               6       0                               0D    128
     126     156                                                00010000D    129
     126       0               3       0                               0D    130
     126     159                                                00010000D    131
     126       0               9       0                               0D    132
     126     168                                                00010000D    133
     126       0               6       0                               0D    134
     126     174                                                00010000D    135
     126       0               7       0                               0D    136
     126     181                                                00010000D    137
     126       0               3       0                               0D    138
     126     184                                                00010000D    139
     126       0              11       0                               0D    140
     126     195                                                00010000D    141
     126       0               5       0                               0D    142
     126     200                                                00010000D    143
     126       0               6       0                               0D    144
     126     206                                                00010000D    145
     126       0               3       0                               0D    146
     126     209                                                00010000D    147
     126       0               9       0                               0D    148
     126     218                                                00010000D    149
     126       0               5       0                               0D    150
     126     223                                                00010000D    151
     126       0               6       0                               0D    152
     126     229                                                00010000D    153
     126       0               3       0                               0D    154
     126     232                                                00010000D    155
     126       0               9       0                               0D    156
     126     241                                                00010000D    157
     126       0               5       0                               0D    158
     126     246                                                00010000D    159
     126       0               6       0                               0D    160
     126     252                                                00010000D    161
     126       0               3       0                               0D    162
     126     255                                                00010000D    163
     126       0               9       0                               0D    164
     126     264                                                00010000D    165
     126       0               2       0                               0D    166
     126     266                                                00010000D    167
     126       0               2       0                               0D    168
     126     268                                                00010000D    169
     126       0               2       0                               0D    170
     126     270                                                00010000D    171
     126       0               2       0                               0D    172
     126     272                                                00010000D    173
     126       0               2       0                               0D    174
     126     274                                                00010000D    175
     126       0               2       0                               0D    176
     126     276                                                00010000D    177
     126       0               2       0                               0D    178
     126     278                                                00010000D    179
     126       0               2       0                               0D    180
     126     280                                                00010000D    181
     126       0               2       0                               0D    182
     126     282                                                00010000D    183
     126       0               2       0                               0D    184
     126     284                                                00010000D    185
     126       0               2       0                               0D    186
     126     286                                                00010000D    187
     126       0               2       0                               0D    188
     128     288                                                00010000D    189
     128       0    -227      18       0                               0D    190
     128     306                                                00010000D    191
     128       0    -227       4       0                               0D    192
     128     310                                                00010000D    193
     128       0    -227      17       0                               0D    194
     128     327                                                00010000D    195
     128       0    -227       4       0                               0D    196
     128     331                                                00010000D    197
     128       0    -227      14       0                               0D    198
     128     345                                                00010000D    199
     128       0    -227      15       0                               0D    200
     128     360                                                00010000D    201
     128       0    -227      18       0                               0D    202
     128     378                                                00010000D    203
     128       0    -227      14       0                               0D    204
     128     392                                                00010000D    205
     128       0    -227      15       0                               0D    206
     128     407                                                00010000D    207
     128       0    -227      15       0                               0D    208
     128     422                                                00010000D    209
     128       0    -227       4       0                               0D    210
     128     426                                                00010000D    211
     128       0    -227       4       0                               0D    212
     128     430                                                00010000D    213
     128       0    -227       4       0                               0D    214
     128     434                                                00010000D    215
     128       0    -227       4       0                               0D    216
     128     438                                                00010000D    217
     128       0    -227       3       0                               0D    218
     128     441                                                00010000D    219
     128       0    -227       3       0                               0D    220
     502     444                                                00010000D    221
     502                      13       1                               0D    222
     504     457                                                00010001D    223
     504                      13       1                               0D    224
     406     470                                                00000000D    225
     406                       1      15                               0D    226
     314     471                                                00000200D    227
     314                       1       0                               0D    228
186,3,1,0,0,1,225;                                                     1P      1
514,16,5,1,7,1,9,1,11,1,13,1,15,1,17,1,19,1,21,1,23,1,25,1,27,1,       3P      2
29,1,31,1,33,1,35,1;                                                   3P      3
510,189,1,1,37;                                                        5P      4
510,191,1,1,39;                                                        7P      5
510,193,1,1,41;                                                        9P      6
510,195,1,1,43;                                                       11P      7
510,197,1,1,45;                                                       13P      8
510,199,1,1,47;                                                       15P      9
510,201,1,1,49;                                                       17P     10
510,203,1,1,51;                                                       19P     11
510,205,1,1,53;                                                       21P     12
510,207,1,1,55;                                                       23P     13
510,209,7,1,57,59,61,63,65,67,69;                                     25P     14
510,211,3,1,71,73,75;                                                 27P     15
510,213,7,1,77,79,81,83,85,87,89;                                     29P     16
510,215,1,1,91;                                                       31P     17
510,217,1,1,93;                                                       33P     18
510,219,1,1,95;                                                       35P     19
508,6,0,223,1,0,0,0,223,2,0,0,0,223,3,1,0,0,223,4,0,0,0,223,5,0,      37P     20
0,0,223,3,0,0;                                                        37P     21
508,2,0,223,4,1,0,0,223,5,1,0;                                        39P     22
508,6,0,223,6,0,0,0,223,7,0,0,0,223,8,1,0,0,223,9,1,0,0,223,10,       41P     23
1,0,0,223,8,0,0;                                                      41P     24
508,2,0,223,10,0,0,0,223,9,0,0;                                       43P     25
508,5,0,223,11,0,0,0,223,12,0,0,0,223,13,1,0,0,223,14,0,0,0,223,      45P     26
13,0,0;                                                               45P     27
508,5,0,223,15,0,0,0,223,16,0,0,0,223,17,1,0,0,223,18,0,0,0,223,      47P     28
17,0,0;                                                               47P     29
508,5,0,223,19,0,0,0,223,20,0,0,0,223,21,1,0,0,223,22,0,0,0,223,      49P     30
21,0,0;                                                               49P     31
508,5,0,223,23,0,0,0,223,24,0,0,0,223,25,1,0,0,223,26,0,0,0,223,      51P     32
25,0,0;                                                               51P     33
508,5,0,223,27,0,0,0,223,28,0,0,0,223,29,1,0,0,223,30,0,0,0,223,      53P     34
29,0,0;                                                               53P     35
508,5,0,223,31,0,0,0,223,32,0,0,0,223,33,1,0,0,223,34,0,0,0,223,      55P     36
33,0,0;                                                               55P     37
508,4,0,223,35,1,0,0,223,36,1,0,0,223,37,0,0,0,223,38,0,0;            57P     38
508,2,0,223,11,1,0,0,223,12,1,0;                                      59P     39
508,2,0,223,15,1,0,0,223,16,1,0;                                      61P     40
508,2,0,223,19,1,0,0,223,20,1,0;                                      63P     41
508,2,0,223,23,1,0,0,223,24,1,0;                                      65P     42
508,2,0,223,27,1,0,0,223,28,1,0;                                      67P     43
508,2,0,223,31,1,0,0,223,32,1,0;                                      69P     44
508,4,0,223,39,1,0,0,223,38,1,0,0,223,40,0,0,0,223,41,0,0;            71P     45
508,2,0,223,1,1,0,0,223,2,1,0;                                        73P     46
508,2,0,223,6,1,0,0,223,7,1,0;                                        75P     47
508,4,0,223,42,1,0,0,223,41,1,0,0,223,43,0,0,0,223,44,0,0;            77P     48
508,1,0,223,14,1,0;                                                   79P     49
508,1,0,223,18,1,0;                                                   81P     50
508,1,0,223,22,1,0;                                                   83P     51
508,1,0,223,26,1,0;                                                   85P     52
508,1,0,223,30,1,0;                                                   87P     53
508,1,0,223,34,1,0;                                                   89P     54
508,4,0,223,45,1,0,0,223,44,1,0,0,223,46,0,0,0,223,36,0,0;            91P     55
508,4,0,223,46,1,0,0,223,43,1,0,0,223,40,1,0,0,223,37,1,0;            93P     56
508,4,0,223,45,0,0,0,223,35,0,0,0,223,39,0,0,0,223,42,0,0;            95P     57
126,4,2,0,0,0,0,2.58812632946526D-34,2.58812632946526D-34,            97P     58
2.58812632946526D-34,1.5707963267949,1.5707963267949,                 97P     59
3.14159265358979,3.14159265358979,3.14159265358979,1.,                97P     60
0.707106781186233,1.,0.707106781186233,1.,5969.6,76.2,                97P     61
1.33226762955019D-14,5969.6,76.2,-4.99999999999999,5974.6,76.2,       97P     62
-4.99999999999999,5979.6,76.2,-4.99999999999999,5979.6,76.2,          97P     63
1.27103528959282D-14,2.58812632946526D-34,3.14159265358979,0.,        97P     64
0.,0.;                                                                97P     65
126,4,2,0,0,0,0,3.14159265358979,3.14159265358979,                    99P     66
3.14159265358979,4.71238898038469,4.71238898038469,                   99P     67
6.28318530717959,6.28318530717959,6.28318530717959,1.,                99P     68
0.707106781186233,1.,0.707106781186233,1.,5979.6,76.2,                99P     69
1.27103528959282D-14,5979.6,76.2,5.00000000000001,5974.6,76.2,        99P     70
5.00000000000001,5969.6,76.2,5.00000000000002,5969.6,76.2,            99P     71
1.45473230946492D-14,3.14159265358979,6.28318530717959,0.,0.,0.;      99P     72
126,1,1,0,0,1,0,-1.74838271594513D-16,-1.74838271594513D-16,         101P     73
10.16,10.16,1.,1.,5979.6,76.2,1.33226762955019D-14,5979.6,25.4,      101P     74
4.44089209850063D-15,-1.74838271594513D-16,10.16,0.,0.,0.;           101P     75
126,4,2,0,0,0,0,-6.28318530717959,-6.28318530717959,                 103P     76
-6.28318530717959,-4.71238898038469,-4.71238898038469,               103P     77
-3.14159265358979,-3.14159265358979,-3.14159265358979,1.,            103P     78
0.707106781186233,1.,0.707106781186233,1.,5969.6,25.4,               103P     79
5.66553889764798D-15,5969.6,25.4,5.00000000000001,5974.6,25.4,       103P     80
5.00000000000001,5979.6,25.4,5.,5979.6,25.4,                         103P     81
3.82856869892695D-15,-6.28318530717959,-3.14159265358979,0.,0.,      103P     82
0.;                                                                  103P     83
126,4,2,0,0,0,0,-3.14159265358979,-3.14159265358979,                 105P     84
-3.14159265358979,-1.5707963267949,-1.5707963267949,                 105P     85
-2.58812632946526D-34,-2.58812632946526D-34,                         105P     86
-2.58812632946526D-34,1.,0.707106781186233,1.,0.707106781186233,     105P     87
1.,5979.6,25.4,3.82856869892695D-15,5979.6,25.4,-5.,5974.6,25.4,     105P     88
-5.,5969.6,25.4,-5.,5969.6,25.4,4.44089209850063D-15,                105P     89
-3.14159265358979,-2.58812632946526D-34,0.,0.,0.;                    105P     90
126,4,2,0,0,0,0,-2.58812632946526D-34,-2.58812632946526D-34,         107P     91
-2.58812632946526D-34,1.5707963267949,1.5707963267949,               107P     92
3.14159265358979,3.14159265358979,3.14159265358979,1.,               107P     93
0.707106781186549,1.,0.707106781186549,1.,30.4,76.2,                 107P     94
1.33226762955019D-14,30.4,76.2,5.00000000000001,25.4,76.2,           107P     95
5.00000000000001,20.4,76.2,5.00000000000001,20.4,76.2,               107P     96
1.39349996950756D-14,-2.58812632946526D-34,3.14159265358979,0.,      107P     97
0.,0.;                                                               107P     98
126,4,2,0,0,0,0,3.14159265358979,3.14159265358979,                   109P     99
3.14159265358979,4.71238898038469,4.71238898038469,                  109P    100
6.28318530717959,6.28318530717959,6.28318530717959,1.,               109P    101
0.707106781186549,1.,0.707106781186548,1.,20.4,76.2,                 109P    102
1.39349996950756D-14,20.4,76.2,-4.99999999999999,25.4,76.2,          109P    103
-4.99999999999999,30.4,76.2,-4.99999999999999,30.4,76.2,             109P    104
1.20980294963545D-14,3.14159265358979,6.28318530717959,0.,0.,0.;     109P    105
126,1,1,0,0,1,0,-1.74838271594513D-16,-1.74838271594513D-16,         111P    106
10.16,10.16,1.,1.,20.4,76.2,1.33226762955019D-14,20.4,25.4,          111P    107
4.44089209850063D-15,-1.74838271594513D-16,10.16,0.,0.,0.;           111P    108
126,4,2,0,0,0,0,-3.14159265358979,-3.14159265358979,                 113P    109
-3.14159265358979,-1.5707963267949,-1.5707963267949,                 113P    110
-2.58812632946526D-34,-2.58812632946526D-34,                         113P    111
-2.58812632946526D-34,1.,0.707106781186549,1.,0.707106781186549,     113P    112
1.,20.4,25.4,3.82856869892695D-15,20.4,25.4,-5.,25.4,25.4,-5.,       113P    113
30.4,25.4,-5.,30.4,25.4,4.44089209850063D-15,-3.14159265358979,      113P    114
-2.58812632946526D-34,0.,0.,0.;                                      113P    115
126,4,2,0,0,0,0,-6.28318530717959,-6.28318530717959,                 115P    116
-6.28318530717959,-4.71238898038469,-4.71238898038469,               115P    117
-3.14159265358979,-3.14159265358979,-3.14159265358979,1.,            115P    118
0.707106781186548,1.,0.707106781186549,1.,30.4,25.4,                 115P    119
5.66553889764798D-15,30.4,25.4,5.00000000000001,25.4,25.4,           115P    120
5.00000000000001,20.4,25.4,5.,20.4,25.4,3.82856869892695D-15,        115P    121
-6.28318530717959,-3.14159265358979,0.,0.,0.;                        115P    122
126,4,2,0,0,0,0,0.,0.,0.,1.5707963267949,1.5707963267949,            117P    123
3.14159265358979,3.14159265358979,3.14159265358979,1.,               117P    124
0.70710678118655,1.,0.70710678118655,1.,25.,-38.1,25.4,25.,          117P    125
-33.1,25.4,30.,-33.1,25.4,35.,-33.1,25.4,35.,-38.1,25.4,0.,          117P    126
3.14159265358979,0.,0.,0.;                                           117P    127
126,4,2,0,0,0,0,3.14159265358979,3.14159265358979,                   119P    128
3.14159265358979,4.71238898038469,4.71238898038469,                  119P    129
6.28318530717959,6.28318530717959,6.28318530717959,1.,               119P    130
0.70710678118655,1.,0.707106781186547,1.,35.,-38.1,25.4,35.,         119P    131
-43.1,25.4,30.,-43.1,25.4,25.,-43.1,25.4,25.,-38.1,25.4,             119P    132
3.14159265358979,6.28318530717959,0.,0.,0.;                          119P    133
126,1,1,0,0,1,0,-5.82794238648376D-17,-5.82794238648376D-17,         121P    134
10.16,10.16,1.,1.,35.,-38.1,25.4,35.,-38.1,-25.4,                    121P    135
-5.82794238648376D-17,10.16,0.,0.,0.;                                121P    136
126,8,2,0,1,0,0,-3.14159265358979,-3.14159265358979,                 123P    137
-3.14159265358979,-1.5707963267949,-1.5707963267949,0.,0.,           123P    138
1.5707963267949,1.5707963267949,3.14159265358979,                    123P    139
3.14159265358979,3.14159265358979,1.,0.70710678118655,1.,            123P    140
0.70710678118655,1.,0.707106781186549,1.,0.707106781186549,1.,       123P    141
35.,-38.1,-25.4,35.,-33.1,-25.4,30.,-33.1,-25.4,25.,-33.1,-25.4,     123P    142
25.,-38.1,-25.4,25.,-43.1,-25.4,30.,-43.1,-25.4,35.,-43.1,-25.4,     123P    143
35.,-38.1,-25.4,-3.14159265358979,3.14159265358979,0.,0.,0.;         123P    144
126,4,2,0,0,0,0,0.,0.,0.,1.5707963267949,1.5707963267949,            125P    145
3.14159265358979,3.14159265358979,3.14159265358979,1.,               125P    146
0.707106781186565,1.,0.707106781186565,1.,2974.2,-38.1,25.4,         125P    147
2974.2,-33.1,25.4,2979.2,-33.1,25.4,2984.2,-33.1,25.4,2984.2,        125P    148
-38.1,25.4,0.,3.14159265358979,0.,0.,0.;                             125P    149
126,4,2,0,0,0,0,3.14159265358979,3.14159265358979,                   127P    150
3.14159265358979,4.71238898038469,4.71238898038469,                  127P    151
6.28318530717959,6.28318530717959,6.28318530717959,1.,               127P    152
0.707106781186561,1.,0.707106781186561,1.,2984.2,-38.1,25.4,         127P    153
2984.2,-43.1,25.4,2979.2,-43.1,25.4,2974.2,-43.1,25.4,2974.2,        127P    154
-38.1,25.4,3.14159265358979,6.28318530717959,0.,0.,0.;               127P    155
126,1,1,0,0,1,0,-5.82794238648376D-17,-5.82794238648376D-17,         129P    156
10.16,10.16,1.,1.,2984.2,-38.1,25.4,2984.2,-38.1,-25.4,              129P    157
-5.82794238648376D-17,10.16,0.,0.,0.;                                129P    158
126,8,2,0,1,0,0,-3.14159265358979,-3.14159265358979,                 131P    159
-3.14159265358979,-1.5707963267949,-1.5707963267949,0.,0.,           131P    160
1.5707963267949,1.5707963267949,3.14159265358979,                    131P    161
3.14159265358979,3.14159265358979,1.,0.707106781186565,1.,           131P    162
0.707106781186565,1.,0.707106781186565,1.,0.707106781186565,1.,      131P    163
2984.2,-38.1,-25.4,2984.2,-33.1,-25.4,2979.2,-33.1,-25.4,2974.2,     131P    164
-33.1,-25.4,2974.2,-38.1,-25.4,2974.2,-43.1,-25.4,2979.2,-43.1,      131P    165
-25.4,2984.2,-43.1,-25.4,2984.2,-38.1,-25.4,-3.14159265358979,       131P    166
3.14159265358979,0.,0.,0.;                                           131P    167
126,4,2,0,0,0,0,0.,0.,0.,1.5707963267949,1.5707963267949,            133P    168
3.14159265358979,3.14159265358979,3.14159265358979,1.,               133P    169
0.70710678118655,1.,0.70710678118655,1.,66.5999999999997,-38.1,      133P    170
25.4,66.5999999999997,-33.1,25.4,71.5999999999997,-33.1,25.4,        133P    171
76.5999999999997,-33.1,25.4,76.5999999999997,-38.1,25.4,0.,          133P    172
3.14159265358979,0.,0.,0.;                                           133P    173
126,4,2,0,0,0,0,3.14159265358979,3.14159265358979,                   135P    174
3.14159265358979,4.71238898038469,4.71238898038469,                  135P    175
6.28318530717959,6.28318530717959,6.28318530717959,1.,               135P    176
0.70710678118655,1.,0.70710678118655,1.,76.5999999999997,-38.1,      135P    177
25.4,76.5999999999997,-43.1,25.4,71.5999999999997,-43.1,25.4,        135P    178
66.5999999999997,-43.1,25.4,66.5999999999997,-38.1,25.4,             135P    179
3.14159265358979,6.28318530717959,0.,0.,0.;                          135P    180
126,1,1,0,0,1,0,-5.82794238648376D-17,-5.82794238648376D-17,         137P    181
10.16,10.16,1.,1.,76.5999999999997,-38.1,25.4,76.5999999999997,      137P    182
-38.1,-25.4,-5.82794238648376D-17,10.16,0.,0.,0.;                    137P    183
126,8,2,0,1,0,0,-3.14159265358979,-3.14159265358979,                 139P    184
-3.14159265358979,-1.5707963267949,-1.5707963267949,0.,0.,           139P    185
1.5707963267949,1.5707963267949,3.14159265358979,                    139P    186
3.14159265358979,3.14159265358979,1.,0.70710678118655,1.,            139P    187
0.70710678118655,1.,0.707106781186549,1.,0.707106781186549,1.,       139P    188
76.5999999999997,-38.1,-25.4,76.5999999999997,-33.1,-25.4,           139P    189
71.5999999999997,-33.1,-25.4,66.5999999999997,-33.1,-25.4,           139P    190
66.5999999999997,-38.1,-25.4,66.5999999999997,-43.1,-25.4,           139P    191
71.5999999999997,-43.1,-25.4,76.5999999999997,-43.1,-25.4,           139P    192
76.5999999999997,-38.1,-25.4,-3.14159265358979,3.14159265358979,     139P    193
0.,0.,0.;                                                            139P    194
126,4,2,0,0,0,0,0.,0.,0.,1.5707963267949,1.5707963267949,            141P    195
3.14159265358979,3.14159265358979,3.14159265358979,1.,               141P    196
0.707106781186234,1.,0.707106781186234,1.,5975.,-38.1,25.4,          141P    197
5975.,-43.1,25.4,5970.,-43.1,25.4,5965.,-43.1,25.4,5965.,-38.1,      141P    198
25.4,0.,3.14159265358979,0.,0.,0.;                                   141P    199
126,4,2,0,0,0,0,3.14159265358979,3.14159265358979,                   143P    200
3.14159265358979,4.71238898038469,4.71238898038469,                  143P    201
6.28318530717959,6.28318530717959,6.28318530717959,1.,               143P    202
0.707106781186234,1.,0.707106781186234,1.,5965.,-38.1,25.4,          143P    203
5965.,-33.1,25.4,5970.,-33.1,25.4,5975.,-33.1,25.4,5975.,-38.1,      143P    204
25.4,3.14159265358979,6.28318530717959,0.,0.,0.;                     143P    205
126,1,1,0,0,1,0,-5.82794238648376D-17,-5.82794238648376D-17,         145P    206
10.16,10.16,1.,1.,5965.,-38.1,25.4,5965.,-38.1,-25.4,                145P    207
-5.82794238648376D-17,10.16,0.,0.,0.;                                145P    208
126,8,2,0,1,0,0,-3.14159265358979,-3.14159265358979,                 147P    209
-3.14159265358979,-1.5707963267949,-1.5707963267949,0.,0.,           147P    210
1.5707963267949,1.5707963267949,3.14159265358979,                    147P    211
3.14159265358979,3.14159265358979,1.,0.707106781186233,1.,           147P    212
0.707106781186233,1.,0.707106781186234,1.,0.707106781186234,1.,      147P    213
5965.,-38.1,-25.4,5965.,-43.1,-25.4,5970.,-43.1,-25.4,5975.,         147P    214
-43.1,-25.4,5975.,-38.1,-25.4,5975.,-33.1,-25.4,5970.,-33.1,         147P    215
-25.4,5965.,-33.1,-25.4,5965.,-38.1,-25.4,-3.14159265358979,         147P    216
3.14159265358979,0.,0.,0.;                                           147P    217
126,4,2,0,0,0,0,0.,0.,0.,1.5707963267949,1.5707963267949,            149P    218
3.14159265358979,3.14159265358979,3.14159265358979,1.,               149P    219
0.707106781186234,1.,0.707106781186234,1.,5933.4,-38.1,25.4,         149P    220
5933.4,-43.1,25.4,5928.4,-43.1,25.4,5923.4,-43.1,25.4,5923.4,        149P    221
-38.1,25.4,0.,3.14159265358979,0.,0.,0.;                             149P    222
126,4,2,0,0,0,0,3.14159265358979,3.14159265358979,                   151P    223
3.14159265358979,4.71238898038469,4.71238898038469,                  151P    224
6.28318530717959,6.28318530717959,6.28318530717959,1.,               151P    225
0.707106781186234,1.,0.707106781186234,1.,5923.4,-38.1,25.4,         151P    226
5923.4,-33.1,25.4,5928.4,-33.1,25.4,5933.4,-33.1,25.4,5933.4,        151P    227
-38.1,25.4,3.14159265358979,6.28318530717959,0.,0.,0.;               151P    228
126,1,1,0,0,1,0,-5.82794238648376D-17,-5.82794238648376D-17,         153P    229
10.16,10.16,1.,1.,5923.4,-38.1,25.4,5923.4,-38.1,-25.4,              153P    230
-5.82794238648376D-17,10.16,0.,0.,0.;                                153P    231
126,8,2,0,1,0,0,-3.14159265358979,-3.14159265358979,                 155P    232
-3.14159265358979,-1.5707963267949,-1.5707963267949,0.,0.,           155P    233
1.5707963267949,1.5707963267949,3.14159265358979,                    155P    234
3.14159265358979,3.14159265358979,1.,0.707106781186233,1.,           155P    235
0.707106781186233,1.,0.707106781186234,1.,0.707106781186234,1.,      155P    236
5923.4,-38.1,-25.4,5923.4,-43.1,-25.4,5928.4,-43.1,-25.4,5933.4,     155P    237
-43.1,-25.4,5933.4,-38.1,-25.4,5933.4,-33.1,-25.4,5928.4,-33.1,      155P    238
-25.4,5923.4,-33.1,-25.4,5923.4,-38.1,-25.4,-3.14159265358979,       155P    239
3.14159265358979,0.,0.,0.;                                           155P    240
126,4,2,0,0,0,0,0.,0.,0.,1.5707963267949,1.5707963267949,            157P    241
3.14159265358979,3.14159265358979,3.14159265358979,1.,               157P    242
0.707106781186561,1.,0.707106781186561,1.,3025.8,-38.1,25.4,         157P    243
3025.8,-43.1,25.4,3020.8,-43.1,25.4,3015.8,-43.1,25.4,3015.8,        157P    244
-38.1,25.4,0.,3.14159265358979,0.,0.,0.;                             157P    245
126,4,2,0,0,0,0,3.14159265358979,3.14159265358979,                   159P    246
3.14159265358979,4.71238898038469,4.71238898038469,                  159P    247
6.28318530717959,6.28318530717959,6.28318530717959,1.,               159P    248
0.707106781186563,1.,0.707106781186565,1.,3015.8,-38.1,25.4,         159P    249
3015.8,-33.1,25.4,3020.8,-33.1,25.4,3025.8,-33.1,25.4,3025.8,        159P    250
-38.1,25.4,3.14159265358979,6.28318530717959,0.,0.,0.;               159P    251
126,1,1,0,0,1,0,-5.82794238648376D-17,-5.82794238648376D-17,         161P    252
10.16,10.16,1.,1.,3015.8,-38.1,25.4,3015.8,-38.1,-25.4,              161P    253
-5.82794238648376D-17,10.16,0.,0.,0.;                                161P    254
126,8,2,0,1,0,0,-3.14159265358979,-3.14159265358979,                 163P    255
-3.14159265358979,-1.5707963267949,-1.5707963267949,0.,0.,           163P    256
1.5707963267949,1.5707963267949,3.14159265358979,                    163P    257
3.14159265358979,3.14159265358979,1.,0.707106781186565,1.,           163P    258
0.707106781186565,1.,0.707106781186565,1.,0.707106781186565,1.,      163P    259
3015.8,-38.1,-25.4,3015.8,-43.1,-25.4,3020.8,-43.1,-25.4,3025.8,     163P    260
-43.1,-25.4,3025.8,-38.1,-25.4,3025.8,-33.1,-25.4,3020.8,-33.1,      163P    261
-25.4,3015.8,-33.1,-25.4,3015.8,-38.1,-25.4,-3.14159265358979,       163P    262
3.14159265358979,0.,0.,0.;                                           163P    263
126,1,1,0,0,1,0,0.,0.,15.24,15.24,1.,1.,0.,76.2,25.4,0.,-76.2,       165P    264
25.4,0.,15.24,0.,0.,0.;                                              165P    265
126,1,1,0,0,1,0,0.,0.,600.,600.,1.,1.,0.,-76.2,25.4,6000.,-76.2,     167P    266
25.4,0.,600.,0.,0.,0.;                                               167P    267
126,1,1,0,0,1,0,0.,0.,15.24,15.24,1.,1.,6000.,76.2,25.4,6000.,       169P    268
-76.2,25.4,0.,15.24,0.,0.,0.;                                        169P    269
126,1,1,0,0,1,0,0.,0.,600.,600.,1.,1.,0.,76.2,25.4,6000.,76.2,       171P    270
25.4,0.,600.,0.,0.,0.;                                               171P    271
126,1,1,0,0,1,0,0.,0.,5.08,5.08,1.,1.,0.,76.2,-25.4,0.,76.2,         173P    272
25.4,0.,5.08,0.,0.,0.;                                               173P    273
126,1,1,0,0,1,0,0.,0.,5.08,5.08,1.,1.,6000.,76.2,-25.4,6000.,        175P    274
76.2,25.4,0.,5.08,0.,0.,0.;                                          175P    275
126,1,1,0,0,1,0,0.,0.,600.,600.,1.,1.,0.,76.2,-25.4,6000.,76.2,      177P    276
-25.4,0.,600.,0.,0.,0.;                                              177P    277
126,1,1,0,0,1,0,0.,0.,15.24,15.24,1.,1.,0.,-76.2,-25.4,0.,76.2,      179P    278
-25.4,0.,15.24,0.,0.,0.;                                             179P    279
126,1,1,0,0,1,0,0.,0.,15.24,15.24,1.,1.,6000.,-76.2,-25.4,6000.,     181P    280
76.2,-25.4,0.,15.24,0.,0.,0.;                                        181P    281
126,1,1,0,0,1,0,0.,0.,600.,600.,1.,1.,0.,-76.2,-25.4,6000.,          183P    282
-76.2,-25.4,0.,600.,0.,0.,0.;                                        183P    283
126,1,1,0,0,1,0,0.,0.,5.08,5.08,1.,1.,0.,-76.2,25.4,0.,-76.2,        185P    284
-25.4,0.,5.08,0.,0.,0.;                                              185P    285
126,1,1,0,0,1,0,0.,0.,5.08,5.08,1.,1.,6000.,-76.2,25.4,6000.,        187P    286
-76.2,-25.4,0.,5.08,0.,0.,0.;                                        187P    287
128,1,8,1,2,0,1,0,0,1,-1.74838271594513D-16,                         189P    288
-1.74838271594513D-16,10.16,10.16,-3.14159265358979,                 189P    289
-3.14159265358979,-3.14159265358979,-1.5707963267949,                189P    290
-1.5707963267949,0.,0.,1.5707963267949,1.5707963267949,              189P    291
3.14159265358979,3.14159265358979,3.14159265358979,1.,1.,            189P    292
0.707106781186548,0.707106781186548,1.,1.,0.707106781186548,         189P    293
0.707106781186548,1.,1.,0.707106781186548,0.707106781186548,1.,      189P    294
1.,0.707106781186548,0.707106781186548,1.,1.,5979.6,25.4,            189P    295
4.44089209850063D-15,5979.6,76.2,1.33226762955019D-14,5979.6,        189P    296
25.4,-4.99999999999999,5979.6,76.2,-4.99999999999999,5974.6,         189P    297
25.4,-5.,5974.6,76.2,-4.99999999999999,5969.6,25.4,                  189P    298
-4.99999999999999,5969.6,76.2,-4.99999999999999,5969.6,25.4,         189P    299
4.44089209850063D-15,5969.6,76.2,1.33226762955019D-14,5969.6,        189P    300
25.4,5.,5969.6,76.2,5.00000000000001,5974.6,25.4,5.,5974.6,76.2,     189P    301
5.00000000000001,5979.6,25.4,5.,5979.6,76.2,5.00000000000001,        189P    302
5979.6,25.4,4.44089209850063D-15,5979.6,76.2,                        189P    303
1.33226762955019D-14,-1.74838271594513D-16,10.16,                    189P    304
-3.14159265358979,3.14159265358979;                                  189P    305
128,1,1,1,1,0,0,1,0,0,-0.501,-0.501,0.501,0.501,-0.501,-0.501,       191P    306
0.501,0.501,1.,1.,1.,1.,5979.61,25.4,5.01000000000001,5979.61,       191P    307
25.4,-5.01,5969.59,25.4,5.01000000000001,5969.59,25.4,-5.01,         191P    308
-0.501,0.501,-0.501,0.501;                                           191P    309
128,1,8,1,2,0,1,0,0,1,-1.74838271594513D-16,                         193P    310
-1.74838271594513D-16,10.16,10.16,-3.14159265358979,                 193P    311
-3.14159265358979,-3.14159265358979,-1.5707963267949,                193P    312
-1.5707963267949,0.,0.,1.5707963267949,1.5707963267949,              193P    313
3.14159265358979,3.14159265358979,3.14159265358979,1.,1.,            193P    314
0.707106781186548,0.707106781186548,1.,1.,0.707106781186548,         193P    315
0.707106781186548,1.,1.,0.707106781186548,0.707106781186548,1.,      193P    316
1.,0.707106781186548,0.707106781186548,1.,1.,20.4,76.2,              193P    317
1.33226762955019D-14,20.4,25.4,4.44089209850063D-15,20.4,76.2,       193P    318
-4.99999999999999,20.4,25.4,-4.99999999999999,25.4,76.2,             193P    319
-4.99999999999999,25.4,25.4,-5.,30.4,76.2,-4.99999999999999,         193P    320
30.4,25.4,-4.99999999999999,30.4,76.2,1.33226762955019D-14,30.4,     193P    321
25.4,4.44089209850063D-15,30.4,76.2,5.00000000000001,30.4,25.4,      193P    322
5.,25.4,76.2,5.00000000000001,25.4,25.4,5.,20.4,76.2,                193P    323
5.00000000000001,20.4,25.4,5.,20.4,76.2,1.33226762955019D-14,        193P    324
20.4,25.4,4.44089209850063D-15,-1.74838271594513D-16,10.16,          193P    325
-3.14159265358979,3.14159265358979;                                  193P    326
128,1,1,1,1,0,0,1,0,0,-0.501,-0.501,0.501,0.501,-0.501,-0.501,       195P    327
0.501,0.501,1.,1.,1.,1.,20.39,25.4,-5.01,20.39,25.4,                 195P    328
5.01000000000001,30.41,25.4,-5.01,30.41,25.4,5.01000000000001,       195P    329
-0.501,0.501,-0.501,0.501;                                           195P    330
128,1,8,1,2,0,1,0,0,1,-5.82794238648376D-17,                         197P    331
-5.82794238648376D-17,10.16,10.16,-3.14159265358979,                 197P    332
-3.14159265358979,-3.14159265358979,-1.5707963267949,                197P    333
-1.5707963267949,0.,0.,1.5707963267949,1.5707963267949,              197P    334
3.14159265358979,3.14159265358979,3.14159265358979,1.,1.,            197P    335
0.707106781186548,0.707106781186548,1.,1.,0.707106781186548,         197P    336
0.707106781186548,1.,1.,0.707106781186548,0.707106781186548,1.,      197P    337
1.,0.707106781186548,0.707106781186548,1.,1.,35.,-38.1,-25.4,        197P    338
35.,-38.1,25.4,35.,-33.1,-25.4,35.,-33.1,25.4,30.,-33.1,-25.4,       197P    339
30.,-33.1,25.4,25.,-33.1,-25.4,25.,-33.1,25.4,25.,-38.1,-25.4,       197P    340
25.,-38.1,25.4,25.,-43.1,-25.4,25.,-43.1,25.4,30.,-43.1,-25.4,       197P    341
30.,-43.1,25.4,35.,-43.1,-25.4,35.,-43.1,25.4,35.,-38.1,-25.4,       197P    342
35.,-38.1,25.4,-5.82794238648376D-17,10.16,-3.14159265358979,        197P    343
3.14159265358979;                                                    197P    344
128,1,8,1,2,0,1,0,0,1,-5.82794238648376D-17,                         199P    345
-5.82794238648376D-17,10.16,10.16,-3.14159265358979,                 199P    346
-3.14159265358979,-3.14159265358979,-1.5707963267949,                199P    347
-1.5707963267949,0.,0.,1.5707963267949,1.5707963267949,              199P    348
3.14159265358979,3.14159265358979,3.14159265358979,1.,1.,            199P    349
0.707106781186548,0.707106781186548,1.,1.,0.707106781186548,         199P    350
0.707106781186548,1.,1.,0.707106781186548,0.707106781186548,1.,      199P    351
1.,0.707106781186548,0.707106781186548,1.,1.,2984.2,-38.1,-25.4,     199P    352
2984.2,-38.1,25.4,2984.2,-33.1,-25.4,2984.2,-33.1,25.4,2979.2,       199P    353
-33.1,-25.4,2979.2,-33.1,25.4,2974.2,-33.1,-25.4,2974.2,-33.1,       199P    354
25.4,2974.2,-38.1,-25.4,2974.2,-38.1,25.4,2974.2,-43.1,-25.4,        199P    355
2974.2,-43.1,25.4,2979.2,-43.1,-25.4,2979.2,-43.1,25.4,2984.2,       199P    356
-43.1,-25.4,2984.2,-43.1,25.4,2984.2,-38.1,-25.4,2984.2,-38.1,       199P    357
25.4,-5.82794238648376D-17,10.16,-3.14159265358979,                  199P    358
3.14159265358979;                                                    199P    359
128,1,8,1,2,0,1,0,0,1,-5.82794238648376D-17,                         201P    360
-5.82794238648376D-17,10.16,10.16,-3.14159265358979,                 201P    361
-3.14159265358979,-3.14159265358979,-1.5707963267949,                201P    362
-1.5707963267949,0.,0.,1.5707963267949,1.5707963267949,              201P    363
3.14159265358979,3.14159265358979,3.14159265358979,1.,1.,            201P    364
0.707106781186548,0.707106781186548,1.,1.,0.707106781186548,         201P    365
0.707106781186548,1.,1.,0.707106781186548,0.707106781186548,1.,      201P    366
1.,0.707106781186548,0.707106781186548,1.,1.,76.5999999999997,       201P    367
-38.1,-25.4,76.5999999999997,-38.1,25.4,76.5999999999997,-33.1,      201P    368
-25.4,76.5999999999997,-33.1,25.4,71.5999999999997,-33.1,-25.4,      201P    369
71.5999999999997,-33.1,25.4,66.5999999999997,-33.1,-25.4,            201P    370
66.5999999999997,-33.1,25.4,66.5999999999997,-38.1,-25.4,            201P    371
66.5999999999997,-38.1,25.4,66.5999999999997,-43.1,-25.4,            201P    372
66.5999999999997,-43.1,25.4,71.5999999999997,-43.1,-25.4,            201P    373
71.5999999999997,-43.1,25.4,76.5999999999997,-43.1,-25.4,            201P    374
76.5999999999997,-43.1,25.4,76.5999999999997,-38.1,-25.4,            201P    375
76.5999999999997,-38.1,25.4,-5.82794238648376D-17,10.16,             201P    376
-3.14159265358979,3.14159265358979;                                  201P    377
128,1,8,1,2,0,1,0,0,1,-5.82794238648376D-17,                         203P    378
-5.82794238648376D-17,10.16,10.16,-3.14159265358979,                 203P    379
-3.14159265358979,-3.14159265358979,-1.5707963267949,                203P    380
-1.5707963267949,0.,0.,1.5707963267949,1.5707963267949,              203P    381
3.14159265358979,3.14159265358979,3.14159265358979,1.,1.,            203P    382
0.707106781186548,0.707106781186548,1.,1.,0.707106781186548,         203P    383
0.707106781186548,1.,1.,0.707106781186548,0.707106781186548,1.,      203P    384
1.,0.707106781186548,0.707106781186548,1.,1.,5965.,-38.1,25.4,       203P    385
5965.,-38.1,-25.4,5965.,-33.1,25.4,5965.,-33.1,-25.4,5970.,          203P    386
-33.1,25.4,5970.,-33.1,-25.4,5975.,-33.1,25.4,5975.,-33.1,-25.4,     203P    387
5975.,-38.1,25.4,5975.,-38.1,-25.4,5975.,-43.1,25.4,5975.,-43.1,     203P    388
-25.4,5970.,-43.1,25.4,5970.,-43.1,-25.4,5965.,-43.1,25.4,5965.,     203P    389
-43.1,-25.4,5965.,-38.1,25.4,5965.,-38.1,-25.4,                      203P    390
-5.82794238648376D-17,10.16,-3.14159265358979,3.14159265358979;      203P    391
128,1,8,1,2,0,1,0,0,1,-5.82794238648376D-17,                         205P    392
-5.82794238648376D-17,10.16,10.16,-3.14159265358979,                 205P    393
-3.14159265358979,-3.14159265358979,-1.5707963267949,                205P    394
-1.5707963267949,0.,0.,1.5707963267949,1.5707963267949,              205P    395
3.14159265358979,3.14159265358979,3.14159265358979,1.,1.,            205P    396
0.707106781186548,0.707106781186548,1.,1.,0.707106781186548,         205P    397
0.707106781186548,1.,1.,0.707106781186548,0.707106781186548,1.,      205P    398
1.,0.707106781186548,0.707106781186548,1.,1.,5923.4,-38.1,25.4,      205P    399
5923.4,-38.1,-25.4,5923.4,-33.1,25.4,5923.4,-33.1,-25.4,5928.4,      205P    400
-33.1,25.4,5928.4,-33.1,-25.4,5933.4,-33.1,25.4,5933.4,-33.1,        205P    401
-25.4,5933.4,-38.1,25.4,5933.4,-38.1,-25.4,5933.4,-43.1,25.4,        205P    402
5933.4,-43.1,-25.4,5928.4,-43.1,25.4,5928.4,-43.1,-25.4,5923.4,      205P    403
-43.1,25.4,5923.4,-43.1,-25.4,5923.4,-38.1,25.4,5923.4,-38.1,        205P    404
-25.4,-5.82794238648376D-17,10.16,-3.14159265358979,                 205P    405
3.14159265358979;                                                    205P    406
128,1,8,1,2,0,1,0,0,1,-5.82794238648376D-17,                         207P    407
-5.82794238648376D-17,10.16,10.16,-3.14159265358979,                 207P    408
-3.14159265358979,-3.14159265358979,-1.5707963267949,                207P    409
-1.5707963267949,0.,0.,1.5707963267949,1.5707963267949,              207P    410
3.14159265358979,3.14159265358979,3.14159265358979,1.,1.,            207P    411
0.707106781186548,0.707106781186548,1.,1.,0.707106781186548,         207P    412
0.707106781186548,1.,1.,0.707106781186548,0.707106781186548,1.,      207P    413
1.,0.707106781186548,0.707106781186548,1.,1.,3015.8,-38.1,25.4,      207P    414
3015.8,-38.1,-25.4,3015.8,-33.1,25.4,3015.8,-33.1,-25.4,3020.8,      207P    415
-33.1,25.4,3020.8,-33.1,-25.4,3025.8,-33.1,25.4,3025.8,-33.1,        207P    416
-25.4,3025.8,-38.1,25.4,3025.8,-38.1,-25.4,3025.8,-43.1,25.4,        207P    417
3025.8,-43.1,-25.4,3020.8,-43.1,25.4,3020.8,-43.1,-25.4,3015.8,      207P    418
-43.1,25.4,3015.8,-43.1,-25.4,3015.8,-38.1,25.4,3015.8,-38.1,        207P    419
-25.4,-5.82794238648376D-17,10.16,-3.14159265358979,                 207P    420
3.14159265358979;                                                    207P    421
128,1,1,1,1,0,0,1,0,0,-0.001,-0.001,15.241,15.241,-0.001,-0.001,     209P    422
600.001,600.001,1.,1.,1.,1.,-0.01,76.21,25.4,-0.01,-76.21,25.4,      209P    423
6000.01,76.21,25.4,6000.01,-76.21,25.4,-0.001,15.241,-0.001,         209P    424
600.001;                                                             209P    425
128,1,1,1,1,0,0,1,0,0,-0.001,-0.001,5.081,5.081,-0.001,-0.001,       211P    426
600.001,600.001,1.,1.,1.,1.,-0.01,76.2,-25.41,-0.01,76.2,25.41,      211P    427
6000.01,76.2,-25.41,6000.01,76.2,25.41,-0.001,5.081,-0.001,          211P    428
600.001;                                                             211P    429
128,1,1,1,1,0,0,1,0,0,-0.001,-0.001,15.241,15.241,-0.001,-0.001,     213P    430
600.001,600.001,1.,1.,1.,1.,-0.01,-76.21,-25.4,-0.01,76.21,          213P    431
-25.4,6000.01,-76.21,-25.4,6000.01,76.21,-25.4,-0.001,15.241,        213P    432
-0.001,600.001;                                                      213P    433
128,1,1,1,1,0,0,1,0,0,-0.001,-0.001,5.081,5.081,-0.001,-0.001,       215P    434
600.001,600.001,1.,1.,1.,1.,-0.01,-76.2,25.41,-0.01,-76.2,           215P    435
-25.41,6000.01,-76.2,25.41,6000.01,-76.2,-25.41,-0.001,5.081,        215P    436
-0.001,600.001;                                                      215P    437
128,1,1,1,1,0,0,1,0,0,-2.541,-2.541,2.541,2.541,-7.621,-7.621,       217P    438
7.621,7.621,1.,1.,1.,1.,6000.,-76.21,25.41,6000.,-76.21,-25.41,      217P    439
6000.,76.21,25.41,6000.,76.21,-25.41,-2.541,2.541,-7.621,7.621;      217P    440
128,1,1,1,1,0,0,1,0,0,-2.541,-2.541,2.541,2.541,-7.621,-7.621,       219P    441
7.621,7.621,1.,1.,1.,1.,0.,-76.21,-25.41,0.,-76.21,25.41,0.,         219P    442
76.21,-25.41,0.,76.21,25.41,-2.541,2.541,-7.621,7.621;               219P    443
502,34,5969.6,76.2,1.33226762955019D-14,5979.6,76.2,                 221P    444
1.33226762955019D-14,5979.6,25.4,4.44089209850063D-15,5969.6,        221P    445
25.4,4.44089209850063D-15,30.4,76.2,1.33226762955019D-14,20.4,       221P    446
76.2,1.33226762955019D-14,20.4,25.4,4.44089209850063D-15,30.4,       221P    447
25.4,4.44089209850063D-15,25.,-38.1,25.4,35.,-38.1,25.4,35.,         221P    448
-38.1,-25.4,2974.2,-38.1,25.4,2984.2,-38.1,25.4,2984.2,-38.1,        221P    449
-25.4,66.5999999999997,-38.1,25.4,76.5999999999997,-38.1,25.4,       221P    450
76.5999999999997,-38.1,-25.4,5975.,-38.1,25.4,5965.,-38.1,25.4,      221P    451
5965.,-38.1,-25.4,5933.4,-38.1,25.4,5923.4,-38.1,25.4,5923.4,        221P    452
-38.1,-25.4,3025.8,-38.1,25.4,3015.8,-38.1,25.4,3015.8,-38.1,        221P    453
-25.4,0.,76.2,25.4,0.,-76.2,25.4,6000.,-76.2,25.4,6000.,76.2,        221P    454
25.4,0.,76.2,-25.4,6000.,76.2,-25.4,0.,-76.2,-25.4,6000.,-76.2,      221P    455
-25.4;                                                               221P    456
504,46,97,221,1,221,2,99,221,2,221,1,101,221,2,221,3,103,221,4,      223P    457
221,3,105,221,3,221,4,107,221,5,221,6,109,221,6,221,5,111,221,6,     223P    458
221,7,113,221,7,221,8,115,221,8,221,7,117,221,9,221,10,119,221,      223P    459
10,221,9,121,221,10,221,11,123,221,11,221,11,125,221,12,221,13,      223P    460
127,221,13,221,12,129,221,13,221,14,131,221,14,221,14,133,221,       223P    461
15,221,16,135,221,16,221,15,137,221,16,221,17,139,221,17,221,17,     223P    462
141,221,18,221,19,143,221,19,221,18,145,221,19,221,20,147,221,       223P    463
20,221,20,149,221,21,221,22,151,221,22,221,21,153,221,22,221,23,     223P    464
155,221,23,221,23,157,221,24,221,25,159,221,25,221,24,161,221,       223P    465
25,221,26,163,221,26,221,26,165,221,27,221,28,167,221,28,221,29,     223P    466
169,221,30,221,29,171,221,27,221,30,173,221,31,221,27,175,221,       223P    467
32,221,30,177,221,31,221,32,179,221,33,221,31,181,221,34,221,32,     223P    468
183,221,33,221,34,185,221,28,221,33,187,221,29,221,34;               223P    469
406,1,6HSolid1;                                                      225P    470
314,35.6862745098039,7.84313725490196,1.96078431372549,;             227P    471
S      1G      3D    228P    471                                        T      1
